<?xml version="1.0" standalone="no"?>
<!DOCTYPE svg PUBLIC "-//W3C//DTD SVG 20010904//EN"
 "http://www.w3.org/TR/2001/REC-SVG-20010904/DTD/svg10.dtd">
<svg version="1.0" xmlns="http://www.w3.org/2000/svg"
 width="512.000000pt" height="512.000000pt" viewBox="0 0 512.000000 512.000000"
 preserveAspectRatio="xMidYMid meet">

<g transform="translate(0.000000,512.000000) scale(0.100000,-0.100000)"
fill="#000000" stroke="none">
<path d="M2365 4631 c-84 -21 -115 -65 -115 -162 l0 -67 -96 -22 c-205 -47
-410 -131 -582 -238 -46 -29 -86 -52 -89 -52 -3 0 -27 20 -55 45 -28 26 -64
47 -83 51 -70 13 -92 -1 -244 -150 -140 -138 -171 -179 -171 -231 0 -35 31
-94 69 -129 17 -17 31 -33 31 -37 0 -4 -23 -45 -52 -91 -108 -174 -190 -375
-238 -582 l-22 -96 -67 0 c-77 0 -120 -21 -148 -72 -16 -29 -18 -60 -18 -238
0 -178 2 -209 18 -238 28 -51 71 -72 148 -72 l65 0 32 -130 c51 -206 122 -374
233 -553 27 -43 49 -81 49 -84 0 -3 -20 -27 -45 -55 -47 -53 -62 -95 -50 -150
10 -47 284 -324 336 -340 56 -16 101 -3 157 47 28 25 52 45 55 45 3 0 43 -23
89 -52 168 -104 383 -192 581 -238 l97 -22 0 -67 c0 -77 21 -120 72 -148 29
-16 60 -18 243 -18 186 0 214 2 238 18 48 31 67 74 67 149 l0 67 58 11 c212
42 454 140 635 256 37 24 71 44 75 44 5 0 23 -16 42 -35 64 -66 136 -82 200
-44 19 12 92 78 162 149 96 97 129 137 139 168 17 59 5 103 -46 160 -25 28
-45 53 -45 56 0 3 20 36 44 73 116 180 214 424 256 636 l11 57 67 0 c75 0 118
19 149 67 16 24 18 52 18 243 0 191 -2 219 -18 243 -31 48 -74 67 -149 67
l-67 0 -11 58 c-42 211 -140 455 -256 635 -24 37 -44 71 -44 75 0 5 16 23 35
42 66 64 82 136 44 200 -28 45 -244 261 -289 289 -64 38 -136 22 -200 -44 -19
-19 -37 -35 -42 -35 -4 0 -38 20 -75 44 -181 116 -423 214 -635 256 l-58 11 0
67 c0 75 -19 118 -67 149 -23 16 -53 18 -218 20 -104 1 -203 -2 -220 -6z m300
-742 c130 -3 350 -62 490 -131 235 -118 485 -368 603 -603 91 -183 131 -364
131 -595 0 -231 -40 -412 -131 -595 -118 -237 -365 -483 -603 -603 -305 -152
-699 -179 -1025 -67 -202 69 -350 162 -511 324 -270 271 -392 563 -392 941 0
286 69 515 226 750 64 97 260 293 357 357 226 151 529 244 745 227 28 -2 77
-4 110 -5z"/>
<path d="M2501 3079 c-123 -16 -237 -75 -321 -165 -56 -60 -82 -101 -112 -179
-19 -50 -23 -78 -23 -175 0 -97 4 -125 23 -175 76 -195 235 -318 443 -345 126
-15 256 21 367 103 143 105 232 316 204 485 -33 193 -149 344 -322 415 -60 25
-157 49 -184 46 -6 -1 -40 -5 -75 -10z"/>
</g>
</svg>
